<mxfile host="app.diagrams.net" agent="Mozilla/5.0 (X11; Linux x86_64) AppleWebKit/537.36 (KHTML, like Gecko) Chrome/129.0.0.0 Safari/537.36" version="24.7.16">
  <diagram id="C5RBs43oDa-KdzZeNtuy" name="Page-1">
    <mxGraphModel dx="1593" dy="843" grid="1" gridSize="10" guides="1" tooltips="1" connect="1" arrows="1" fold="1" page="1" pageScale="1" pageWidth="827" pageHeight="1169" math="0" shadow="0">
      <root>
        <mxCell id="WIyWlLk6GJQsqaUBKTNV-0" />
        <mxCell id="WIyWlLk6GJQsqaUBKTNV-1" parent="WIyWlLk6GJQsqaUBKTNV-0" />
        <mxCell id="i73NXEQfCjXGW_iQUQH0-4" style="edgeStyle=orthogonalEdgeStyle;rounded=0;orthogonalLoop=1;jettySize=auto;html=1;" edge="1" parent="WIyWlLk6GJQsqaUBKTNV-1" source="i73NXEQfCjXGW_iQUQH0-0" target="i73NXEQfCjXGW_iQUQH0-3">
          <mxGeometry relative="1" as="geometry" />
        </mxCell>
        <mxCell id="i73NXEQfCjXGW_iQUQH0-0" value="" style="ellipse;whiteSpace=wrap;html=1;aspect=fixed;fillStyle=solid;fillColor=#000000;" vertex="1" parent="WIyWlLk6GJQsqaUBKTNV-1">
          <mxGeometry x="249" y="200" width="40" height="40" as="geometry" />
        </mxCell>
        <mxCell id="i73NXEQfCjXGW_iQUQH0-28" style="edgeStyle=orthogonalEdgeStyle;rounded=0;orthogonalLoop=1;jettySize=auto;html=1;entryX=0;entryY=0.5;entryDx=0;entryDy=0;" edge="1" parent="WIyWlLk6GJQsqaUBKTNV-1" source="i73NXEQfCjXGW_iQUQH0-1" target="i73NXEQfCjXGW_iQUQH0-26">
          <mxGeometry relative="1" as="geometry">
            <Array as="points">
              <mxPoint x="539" y="756" />
            </Array>
          </mxGeometry>
        </mxCell>
        <mxCell id="i73NXEQfCjXGW_iQUQH0-1" value="Selecionar dificuldade" style="rounded=1;whiteSpace=wrap;html=1;" vertex="1" parent="WIyWlLk6GJQsqaUBKTNV-1">
          <mxGeometry x="479" y="426" width="120" height="60" as="geometry" />
        </mxCell>
        <mxCell id="i73NXEQfCjXGW_iQUQH0-8" style="edgeStyle=orthogonalEdgeStyle;rounded=0;orthogonalLoop=1;jettySize=auto;html=1;entryX=0;entryY=0.5;entryDx=0;entryDy=0;" edge="1" parent="WIyWlLk6GJQsqaUBKTNV-1" source="i73NXEQfCjXGW_iQUQH0-3" target="i73NXEQfCjXGW_iQUQH0-6">
          <mxGeometry relative="1" as="geometry" />
        </mxCell>
        <mxCell id="i73NXEQfCjXGW_iQUQH0-35" value="" style="edgeStyle=orthogonalEdgeStyle;rounded=0;orthogonalLoop=1;jettySize=auto;html=1;" edge="1" parent="WIyWlLk6GJQsqaUBKTNV-1" source="i73NXEQfCjXGW_iQUQH0-3" target="i73NXEQfCjXGW_iQUQH0-34">
          <mxGeometry relative="1" as="geometry" />
        </mxCell>
        <mxCell id="i73NXEQfCjXGW_iQUQH0-3" value="Realizou login?" style="rhombus;whiteSpace=wrap;html=1;" vertex="1" parent="WIyWlLk6GJQsqaUBKTNV-1">
          <mxGeometry x="229" y="276" width="80" height="80" as="geometry" />
        </mxCell>
        <mxCell id="i73NXEQfCjXGW_iQUQH0-9" style="edgeStyle=orthogonalEdgeStyle;rounded=0;orthogonalLoop=1;jettySize=auto;html=1;entryX=0;entryY=0;entryDx=0;entryDy=0;" edge="1" parent="WIyWlLk6GJQsqaUBKTNV-1" source="i73NXEQfCjXGW_iQUQH0-6" target="i73NXEQfCjXGW_iQUQH0-1">
          <mxGeometry relative="1" as="geometry" />
        </mxCell>
        <mxCell id="i73NXEQfCjXGW_iQUQH0-17" value="" style="edgeStyle=orthogonalEdgeStyle;rounded=0;orthogonalLoop=1;jettySize=auto;html=1;" edge="1" parent="WIyWlLk6GJQsqaUBKTNV-1" source="i73NXEQfCjXGW_iQUQH0-6" target="i73NXEQfCjXGW_iQUQH0-16">
          <mxGeometry relative="1" as="geometry" />
        </mxCell>
        <mxCell id="i73NXEQfCjXGW_iQUQH0-6" value="Existe jogo salvo?" style="rhombus;whiteSpace=wrap;html=1;" vertex="1" parent="WIyWlLk6GJQsqaUBKTNV-1">
          <mxGeometry x="429" y="271" width="100" height="90" as="geometry" />
        </mxCell>
        <mxCell id="i73NXEQfCjXGW_iQUQH0-10" value="Não" style="text;html=1;align=center;verticalAlign=middle;resizable=0;points=[];autosize=1;strokeColor=none;fillColor=none;" vertex="1" parent="WIyWlLk6GJQsqaUBKTNV-1">
          <mxGeometry x="439" y="366" width="50" height="30" as="geometry" />
        </mxCell>
        <mxCell id="i73NXEQfCjXGW_iQUQH0-20" value="" style="edgeStyle=orthogonalEdgeStyle;rounded=0;orthogonalLoop=1;jettySize=auto;html=1;" edge="1" parent="WIyWlLk6GJQsqaUBKTNV-1" source="i73NXEQfCjXGW_iQUQH0-16" target="i73NXEQfCjXGW_iQUQH0-19">
          <mxGeometry relative="1" as="geometry" />
        </mxCell>
        <mxCell id="i73NXEQfCjXGW_iQUQH0-16" value="Mostrar opção de novo jogo e de continuar" style="rounded=1;whiteSpace=wrap;html=1;" vertex="1" parent="WIyWlLk6GJQsqaUBKTNV-1">
          <mxGeometry x="659" y="286" width="120" height="60" as="geometry" />
        </mxCell>
        <mxCell id="i73NXEQfCjXGW_iQUQH0-18" value="Sim" style="text;html=1;align=center;verticalAlign=middle;resizable=0;points=[];autosize=1;strokeColor=none;fillColor=none;" vertex="1" parent="WIyWlLk6GJQsqaUBKTNV-1">
          <mxGeometry x="569" y="296" width="40" height="30" as="geometry" />
        </mxCell>
        <mxCell id="i73NXEQfCjXGW_iQUQH0-21" value="" style="edgeStyle=orthogonalEdgeStyle;rounded=0;orthogonalLoop=1;jettySize=auto;html=1;" edge="1" parent="WIyWlLk6GJQsqaUBKTNV-1" source="i73NXEQfCjXGW_iQUQH0-19" target="i73NXEQfCjXGW_iQUQH0-1">
          <mxGeometry relative="1" as="geometry" />
        </mxCell>
        <mxCell id="i73NXEQfCjXGW_iQUQH0-24" value="" style="edgeStyle=orthogonalEdgeStyle;rounded=0;orthogonalLoop=1;jettySize=auto;html=1;" edge="1" parent="WIyWlLk6GJQsqaUBKTNV-1" source="i73NXEQfCjXGW_iQUQH0-19" target="i73NXEQfCjXGW_iQUQH0-23">
          <mxGeometry relative="1" as="geometry" />
        </mxCell>
        <mxCell id="i73NXEQfCjXGW_iQUQH0-19" value="Criar novo jogo?" style="rhombus;whiteSpace=wrap;html=1;rounded=1;" vertex="1" parent="WIyWlLk6GJQsqaUBKTNV-1">
          <mxGeometry x="679" y="416" width="80" height="80" as="geometry" />
        </mxCell>
        <mxCell id="i73NXEQfCjXGW_iQUQH0-22" value="Sim" style="text;html=1;align=center;verticalAlign=middle;resizable=0;points=[];autosize=1;strokeColor=none;fillColor=none;" vertex="1" parent="WIyWlLk6GJQsqaUBKTNV-1">
          <mxGeometry x="620" y="424" width="40" height="30" as="geometry" />
        </mxCell>
        <mxCell id="i73NXEQfCjXGW_iQUQH0-27" value="" style="edgeStyle=orthogonalEdgeStyle;rounded=0;orthogonalLoop=1;jettySize=auto;html=1;" edge="1" parent="WIyWlLk6GJQsqaUBKTNV-1" source="i73NXEQfCjXGW_iQUQH0-23" target="i73NXEQfCjXGW_iQUQH0-26">
          <mxGeometry relative="1" as="geometry" />
        </mxCell>
        <mxCell id="i73NXEQfCjXGW_iQUQH0-23" value="Recuperar de onde parou" style="rounded=1;whiteSpace=wrap;html=1;" vertex="1" parent="WIyWlLk6GJQsqaUBKTNV-1">
          <mxGeometry x="659" y="586" width="120" height="60" as="geometry" />
        </mxCell>
        <mxCell id="i73NXEQfCjXGW_iQUQH0-25" value="Não" style="text;html=1;align=center;verticalAlign=middle;resizable=0;points=[];autosize=1;strokeColor=none;fillColor=none;" vertex="1" parent="WIyWlLk6GJQsqaUBKTNV-1">
          <mxGeometry x="715" y="514" width="50" height="30" as="geometry" />
        </mxCell>
        <mxCell id="i73NXEQfCjXGW_iQUQH0-32" style="edgeStyle=orthogonalEdgeStyle;rounded=0;orthogonalLoop=1;jettySize=auto;html=1;" edge="1" parent="WIyWlLk6GJQsqaUBKTNV-1" source="i73NXEQfCjXGW_iQUQH0-26" target="i73NXEQfCjXGW_iQUQH0-29">
          <mxGeometry relative="1" as="geometry" />
        </mxCell>
        <mxCell id="i73NXEQfCjXGW_iQUQH0-26" value="Iniciar Jogo" style="whiteSpace=wrap;html=1;rounded=1;" vertex="1" parent="WIyWlLk6GJQsqaUBKTNV-1">
          <mxGeometry x="659" y="726" width="120" height="60" as="geometry" />
        </mxCell>
        <mxCell id="i73NXEQfCjXGW_iQUQH0-29" value="" style="ellipse;whiteSpace=wrap;html=1;aspect=fixed;" vertex="1" parent="WIyWlLk6GJQsqaUBKTNV-1">
          <mxGeometry x="699" y="836" width="40" height="40" as="geometry" />
        </mxCell>
        <mxCell id="i73NXEQfCjXGW_iQUQH0-30" value="Inicio" style="text;html=1;align=center;verticalAlign=middle;resizable=0;points=[];autosize=1;strokeColor=none;fillColor=none;" vertex="1" parent="WIyWlLk6GJQsqaUBKTNV-1">
          <mxGeometry x="244" y="170" width="50" height="30" as="geometry" />
        </mxCell>
        <mxCell id="i73NXEQfCjXGW_iQUQH0-31" value="Fim" style="text;html=1;align=center;verticalAlign=middle;resizable=0;points=[];autosize=1;strokeColor=none;fillColor=none;" vertex="1" parent="WIyWlLk6GJQsqaUBKTNV-1">
          <mxGeometry x="700" y="884" width="40" height="30" as="geometry" />
        </mxCell>
        <mxCell id="i73NXEQfCjXGW_iQUQH0-41" value="" style="edgeStyle=orthogonalEdgeStyle;rounded=0;orthogonalLoop=1;jettySize=auto;html=1;" edge="1" parent="WIyWlLk6GJQsqaUBKTNV-1" source="i73NXEQfCjXGW_iQUQH0-34" target="i73NXEQfCjXGW_iQUQH0-40">
          <mxGeometry relative="1" as="geometry" />
        </mxCell>
        <mxCell id="i73NXEQfCjXGW_iQUQH0-44" value="" style="edgeStyle=orthogonalEdgeStyle;rounded=0;orthogonalLoop=1;jettySize=auto;html=1;" edge="1" parent="WIyWlLk6GJQsqaUBKTNV-1" source="i73NXEQfCjXGW_iQUQH0-34" target="i73NXEQfCjXGW_iQUQH0-43">
          <mxGeometry relative="1" as="geometry" />
        </mxCell>
        <mxCell id="i73NXEQfCjXGW_iQUQH0-34" value="Tem conta?" style="rhombus;whiteSpace=wrap;html=1;" vertex="1" parent="WIyWlLk6GJQsqaUBKTNV-1">
          <mxGeometry x="229" y="436" width="80" height="80" as="geometry" />
        </mxCell>
        <mxCell id="i73NXEQfCjXGW_iQUQH0-36" value="Sim" style="text;html=1;align=center;verticalAlign=middle;resizable=0;points=[];autosize=1;strokeColor=none;fillColor=none;" vertex="1" parent="WIyWlLk6GJQsqaUBKTNV-1">
          <mxGeometry x="340" y="284" width="40" height="30" as="geometry" />
        </mxCell>
        <mxCell id="i73NXEQfCjXGW_iQUQH0-37" value="Não" style="text;html=1;align=center;verticalAlign=middle;resizable=0;points=[];autosize=1;strokeColor=none;fillColor=none;" vertex="1" parent="WIyWlLk6GJQsqaUBKTNV-1">
          <mxGeometry x="269" y="386" width="50" height="30" as="geometry" />
        </mxCell>
        <mxCell id="i73NXEQfCjXGW_iQUQH0-47" style="edgeStyle=orthogonalEdgeStyle;rounded=0;orthogonalLoop=1;jettySize=auto;html=1;exitX=0;exitY=0;exitDx=0;exitDy=0;entryX=0;entryY=0.5;entryDx=0;entryDy=0;" edge="1" parent="WIyWlLk6GJQsqaUBKTNV-1" source="i73NXEQfCjXGW_iQUQH0-40" target="i73NXEQfCjXGW_iQUQH0-3">
          <mxGeometry relative="1" as="geometry">
            <Array as="points">
              <mxPoint x="49" y="316" />
            </Array>
          </mxGeometry>
        </mxCell>
        <mxCell id="i73NXEQfCjXGW_iQUQH0-40" value="Exigir que faça login" style="rounded=1;whiteSpace=wrap;html=1;" vertex="1" parent="WIyWlLk6GJQsqaUBKTNV-1">
          <mxGeometry x="49" y="446" width="120" height="60" as="geometry" />
        </mxCell>
        <mxCell id="i73NXEQfCjXGW_iQUQH0-42" value="Sim" style="text;html=1;align=center;verticalAlign=middle;resizable=0;points=[];autosize=1;strokeColor=none;fillColor=none;" vertex="1" parent="WIyWlLk6GJQsqaUBKTNV-1">
          <mxGeometry x="180" y="454" width="40" height="30" as="geometry" />
        </mxCell>
        <mxCell id="i73NXEQfCjXGW_iQUQH0-46" style="edgeStyle=orthogonalEdgeStyle;rounded=0;orthogonalLoop=1;jettySize=auto;html=1;entryX=0;entryY=0.5;entryDx=0;entryDy=0;" edge="1" parent="WIyWlLk6GJQsqaUBKTNV-1" source="i73NXEQfCjXGW_iQUQH0-43" target="i73NXEQfCjXGW_iQUQH0-29">
          <mxGeometry relative="1" as="geometry">
            <Array as="points">
              <mxPoint x="269" y="856" />
            </Array>
          </mxGeometry>
        </mxCell>
        <mxCell id="i73NXEQfCjXGW_iQUQH0-43" value="Direcionar para tela de cadastro" style="rounded=1;whiteSpace=wrap;html=1;" vertex="1" parent="WIyWlLk6GJQsqaUBKTNV-1">
          <mxGeometry x="209" y="606" width="120" height="60" as="geometry" />
        </mxCell>
        <mxCell id="i73NXEQfCjXGW_iQUQH0-45" value="Não" style="text;html=1;align=center;verticalAlign=middle;resizable=0;points=[];autosize=1;strokeColor=none;fillColor=none;" vertex="1" parent="WIyWlLk6GJQsqaUBKTNV-1">
          <mxGeometry x="269" y="534" width="50" height="30" as="geometry" />
        </mxCell>
      </root>
    </mxGraphModel>
  </diagram>
</mxfile>
